<svg width="100" height="100" viewBox="0 0 100 100" fill="none" xmlns="http://www.w3.org/2000/svg">
  <defs>
    <linearGradient id="shieldGradient" x1="0%" y1="0%" x2="100%" y2="100%">
      <stop offset="0%" style="stop-color:#7DD3FC;stop-opacity:1" />
      <stop offset="50%" style="stop-color:#38BDF8;stop-opacity:1" />
      <stop offset="100%" style="stop-color:#0284C7;stop-opacity:1" />
    </linearGradient>
    <linearGradient id="innerShield" x1="0%" y1="0%" x2="100%" y2="100%">
      <stop offset="0%" style="stop-color:#E0F2FE;stop-opacity:1" />
      <stop offset="100%" style="stop-color:#BAE6FD;stop-opacity:1" />
    </linearGradient>
  </defs>
  <path d="M50 5L15 20V45C15 67.5 50 85 50 85C50 85 85 67.5 85 45V20L50 5Z" fill="url(#shieldGradient)" stroke="#0369A1" stroke-width="1"/>
  <path d="M50 12L22 24V45C22 62.5 50 78 50 78C50 78 78 62.5 78 45V24L50 12Z" fill="url(#innerShield)" stroke="#0369A1" stroke-width="0.5"/>
  
  <!-- Keyhole (Keeping it as a security symbol, but making it blue) -->
  <circle cx="50" cy="44" r="5" fill="#0369A1"/>
  <path d="M48 44L46 56H54L52 44H48Z" fill="#0369A1"/>
</svg>
